<?xml version="1.0" encoding="UTF-8" standalone="no"?>
<!DOCTYPE svg PUBLIC "-//W3C//DTD SVG 1.1//EN" "http://www.w3.org/Graphics/SVG/1.1/DTD/svg11.dtd">
<svg width="100%" height="100%" viewBox="0 0 325 325" version="1.1" xmlns="http://www.w3.org/2000/svg" xmlns:xlink="http://www.w3.org/1999/xlink" xml:space="preserve" xmlns:serif="http://www.serif.com/" style="fill-rule:evenodd;clip-rule:evenodd;stroke-linejoin:round;stroke-miterlimit:2;">
    <g transform="matrix(1.09342,0,0,1.09342,-161.223,-537.561)">
        <path d="M241.336,738.6L241.336,710.376L217.72,710.376C194.68,710.376 175.96,690.792 175.96,668.04C175.96,645.576 194.968,627.144 217.72,627.144C240.472,627.144 258.904,645.864 258.904,668.616L258.904,738.6L287.416,738.6L287.416,669.192C287.416,630.024 256.6,598.92 217.72,598.92C178.264,598.92 147.448,630.888 147.448,669.48C147.448,707.496 179.416,738.6 217.432,738.6L241.336,738.6Z" style="fill:rgb(24,95,244);fill-rule:nonzero;"/>
    </g>
    <g transform="matrix(1.09342,0,0,1.09342,-161.223,-537.561)">
        <path d="M398.584,603.816L374.68,603.816C336.664,603.816 304.696,634.92 304.696,672.936C304.696,711.528 335.512,743.496 374.968,743.496C413.848,743.496 444.664,712.392 444.664,673.224L444.664,537L416.152,537L416.152,673.8C416.152,696.552 397.72,715.272 374.968,715.272C352.216,715.272 333.208,696.84 333.208,674.376C333.208,651.624 351.928,632.04 374.968,632.04L398.584,632.04L398.584,603.816Z" style="fill:rgb(24,95,244);fill-rule:nonzero;"/>
    </g>
</svg>
