<?xml version="1.0" encoding="UTF-8" standalone="no"?>
<!DOCTYPE svg PUBLIC "-//W3C//DTD SVG 1.1//EN" "http://www.w3.org/Graphics/SVG/1.1/DTD/svg11.dtd">
<svg width="100%" height="100%" viewBox="0 0 900 450" version="1.1" xmlns="http://www.w3.org/2000/svg" xmlns:xlink="http://www.w3.org/1999/xlink" xml:space="preserve" xmlns:serif="http://www.serif.com/" style="fill-rule:evenodd;clip-rule:evenodd;stroke-linejoin:round;stroke-miterlimit:2;">
    <g transform="matrix(1.09342,0,0,1.09342,-161.223,-507.811)">
        <path d="M241.336,738.6L241.336,710.376L217.72,710.376C194.68,710.376 175.96,690.792 175.96,668.04C175.96,645.576 194.968,627.144 217.72,627.144C240.472,627.144 258.904,645.864 258.904,668.616L258.904,738.6L287.416,738.6L287.416,669.192C287.416,630.024 256.6,598.92 217.72,598.92C178.264,598.92 147.448,630.888 147.448,669.48C147.448,707.496 179.416,738.6 217.432,738.6L241.336,738.6Z" style="fill:rgb(24,95,244);fill-rule:nonzero;"/>
        <path d="M398.584,603.816L374.68,603.816C336.664,603.816 304.696,634.92 304.696,672.936C304.696,711.528 335.512,743.496 374.968,743.496C413.848,743.496 444.664,712.392 444.664,673.224L444.664,537L416.152,537L416.152,673.8C416.152,696.552 397.72,715.272 374.968,715.272C352.216,715.272 333.208,696.84 333.208,674.376C333.208,651.624 351.928,632.04 374.968,632.04L398.584,632.04L398.584,603.816Z" style="fill:rgb(24,95,244);fill-rule:nonzero;"/>
        <path d="M536.536,696.264L493.912,603.816L461.944,603.816L527.32,738.6L546.328,738.6L611.992,603.816L580.024,603.816L536.536,696.264Z" style="fill:rgb(24,95,244);fill-rule:nonzero;"/>
        <path d="M626.392,683.88C626.392,718.728 650.008,744.36 685.432,744.36C696.664,744.36 707.32,741.48 715.96,736.296L715.96,738.6C715.96,761.064 701.272,774.888 679.672,774.888L680,774.488L680,803L679.384,803.4C718.264,803.4 744.472,780.648 744.472,738.6L744.472,603.816L715.96,603.816L715.96,683.88C715.96,703.464 701.848,717 685.432,717C669.016,717 654.616,703.464 654.616,683.88L654.616,603.816L626.392,603.816L626.392,683.88Z" style="fill:rgb(24,95,244);fill-rule:nonzero;"/>
        <path d="M766.072,640.392C766.072,686.472 846.712,678.984 846.712,700.872C846.712,708.36 837.496,716.136 821.368,716.136C806.392,716.136 793.144,709.224 782.776,697.992L761.752,717C777.592,733.704 798.616,743.496 821.656,743.496C848.152,743.496 875.224,728.808 875.224,699.432C875.224,652.2 794.584,660.552 794.584,638.664C794.584,632.04 802.36,626.28 816.184,626.28C829.72,626.28 841.528,632.04 850.744,641.544L871.768,622.536C857.368,607.56 838.072,598.92 817.048,598.92C791.704,598.92 766.072,612.168 766.072,640.392Z" style="fill:rgb(24,95,244);fill-rule:nonzero;"/>
        <path d="M947.512,603.816C917.272,603.816 892.504,628.584 892.504,658.824L892.504,738.6L921.016,738.6L921.016,658.824C921.016,643.56 933.112,631.464 948.376,631.464L970.552,631.464L970.552,603.816L947.512,603.816Z" style="fill:rgb(24,95,244);fill-rule:nonzero;"/>
    </g>
</svg>
